<?xml version="1.0" standalone="no"?>
<!DOCTYPE svg PUBLIC "-//W3C//DTD SVG 20010904//EN"
 "http://www.w3.org/TR/2001/REC-SVG-20010904/DTD/svg10.dtd">
<svg version="1.0" xmlns="http://www.w3.org/2000/svg"
 width="260.000000pt" height="260.000000pt" viewBox="0 0 260.000000 260.000000"
 preserveAspectRatio="xMidYMid meet">
<metadata>
Created by potrace 1.14, written by Peter Selinger 2001-2017
</metadata>
<g transform="translate(0.000000,260.000000) scale(0.100000,-0.100000)"
fill="#000000" stroke="none">
<path d="M965 2003 c-512 -45 -736 -209 -694 -511 21 -150 114 -236 321 -296
155 -45 304 -60 839 -86 319 -16 410 -34 423 -86 22 -87 -101 -108 -582 -102
-397 6 -489 25 -507 107 l-6 29 -247 4 c-136 2 -249 2 -251 1 -10 -6 -4 -154
8 -196 31 -107 161 -203 334 -247 184 -46 290 -55 697 -55 409 0 492 6 667 50
234 59 353 165 384 339 22 130 -8 245 -85 321 -62 61 -138 99 -262 130 -160
41 -288 55 -794 85 -365 22 -457 43 -448 104 8 56 141 76 513 76 440 0 545
-23 545 -117 l0 -38 251 0 251 0 -4 93 c-5 81 -10 102 -39 160 -93 183 -346
244 -987 240 -158 -1 -305 -3 -327 -5z"/>
</g>
</svg>
