<svg width="530" height="39" viewBox="0 0 530 39" fill="none" xmlns="http://www.w3.org/2000/svg">
<path d="M13.7235 25.4135C11.8544 25.5113 9.49332 25.5602 6.98472 25.5602C4.52531 25.5602 1.91834 25.4135 0.196753 25.218C0.0491882 26.1955 0 27.1241 0 28.0038C0 35.4323 7.32904 39 28.7751 39C49.7784 39 56.6156 34.8947 56.6156 26.3421C56.6156 18.1316 50.6146 15.297 31.0869 14.3195C14.6089 13.4887 13.6743 12.8534 13.6743 11.3872C13.6743 9.92105 15.4451 9.18797 27.447 9.18797C40.4819 9.18797 42.2527 10.0188 42.2527 12.5113V13.4399C43.7283 13.3421 46.3353 13.2932 48.9422 13.2932C51.4508 13.2932 54.0578 13.3421 55.5335 13.4399C55.5827 12.609 55.5826 11.8759 55.5826 11.1429C55.5826 2.6391 48.8931 0 27.6438 0C7.67336 0 0.295129 4.20301 0.295129 12.2669C0.295129 19.8421 5.85339 23.2632 26.7584 23.9474C42.2526 24.4361 43.138 25.2669 43.138 26.9286C43.138 28.4925 41.5148 29.3233 28.6275 29.3233C16.9207 29.3233 13.7235 28.3459 13.7235 25.8534V25.4135Z" fill="#3000ff"/>
<path d="M60.6325 1.17293C60.6817 2.6391 60.6817 4.7406 60.6817 6.64662C60.6817 8.55263 60.6817 10.8007 60.6325 12.3647C67.4697 12.1692 74.2576 12.1692 80.1602 12.1692C80.1602 24.485 80.0618 35.0413 79.9143 37.8759C81.8818 37.7293 84.7839 37.7293 86.8498 37.7293C88.9157 37.7293 91.9654 37.7293 93.7853 37.8759C93.6378 35.0413 93.5886 24.4361 93.5886 12.1692C99.4912 12.1692 106.279 12.1692 113.116 12.3647C113.018 10.8007 113.018 8.50376 113.018 6.64662C113.018 4.7406 113.018 2.59023 113.116 1.17293H60.6325Z" fill="#3000ff"/>
<path d="M164.76 1.17293C164.907 6.1579 165.006 14.0263 165.006 18.3271C165.006 24.8759 160.677 27.7594 149.167 27.7594C137.755 27.7594 132.689 24.8759 132.689 18.3271C132.689 14.0263 132.787 6.20677 132.984 1.17293H119.015C119.162 4.00752 119.261 6.79323 119.261 11.0451C119.261 13.2932 119.162 16.4699 119.162 18.718C119.162 33.3308 126.639 39 148.872 39C171.105 39 178.532 33.3308 178.532 18.718C178.532 16.4699 178.434 13.2932 178.434 11.0451C178.434 6.79323 178.532 4.00752 178.68 1.17293H164.76Z" fill="#3000ff"/>
<path d="M228.434 12.0714C239.206 12.0714 252.487 12.1203 266.112 12.1692C266.014 10.6541 265.964 8.50376 265.964 6.45113C265.964 4.69173 266.063 2.59023 266.112 1.17293H214.858C214.956 6.10902 214.956 11.7293 214.956 19.5C214.956 27.2707 214.907 32.7444 214.809 37.8271H228.926C228.778 35.3346 228.68 32.3534 228.581 29.2256C241.567 29.2256 254.405 29.3233 265.472 29.3233C265.472 26.7331 265.472 21.8459 265.571 19.2556C254.356 19.5 241.567 19.4511 228.434 19.4511V17.985V12.0714Z" fill="#3000ff"/>
<path d="M290.248 18.1805C290.199 15.7857 290.199 13.2932 290.199 10.8008C295.167 10.6541 305.644 10.6053 309.383 10.6053C317.203 10.6053 320.007 11.5338 320.007 14.3195C320.007 17.0075 317.154 18.3271 309.235 18.3271C301.316 18.3271 293.79 18.3271 290.248 18.1805ZM319.319 22.6278C328.959 21.6015 333.091 18.3759 333.091 12.0714C333.091 4.64286 326.844 1.17293 313.514 1.17293H276.918C277.066 6.45113 277.115 11.7293 277.115 19.5C277.115 27.3684 277.017 32.5 276.918 37.8271H290.986C290.691 35.188 290.494 31.6203 290.396 27.4662H308.005C316.958 27.4662 318.581 28.2481 319.663 32.5489C320.893 37.3383 321.286 37.8271 323.5 37.8271H335.747C335.108 36.4098 334.321 33.7707 333.436 30.594C331.862 25.0226 327.926 23.6541 319.319 22.8233V22.6278Z" fill="#3000ff"/>
<path d="M344.648 1.17293C344.845 6.10902 344.845 11.7293 344.845 19.5C344.845 27.3196 344.845 32.8421 344.648 37.8271H396.64C396.542 36.6053 396.542 34.797 396.542 33.2331C396.542 31.5226 396.542 29.6654 396.64 28.4925C387.048 28.5414 367.914 28.5902 358.716 28.5902V22.8722C369.242 22.8722 387.983 22.9699 396.05 23.0677C396.001 21.015 396.05 17.1053 396.099 15.1992C387.885 15.3459 369.341 15.3459 358.716 15.3459V9.72556C367.914 9.72556 386.409 9.77444 396.64 9.82331C396.542 8.79699 396.542 7.0376 396.542 5.47369C396.542 3.95865 396.591 2.24812 396.64 1.17293H344.648Z" fill="#3000ff"/>
<path d="M407.959 1.17293C408.155 6.10902 408.155 11.7293 408.155 19.5C408.155 27.3196 408.155 32.8421 407.959 37.8271H459.951C459.852 36.6053 459.852 34.797 459.852 33.2331C459.852 31.5226 459.852 29.6654 459.951 28.4925C450.359 28.5414 431.225 28.5902 422.027 28.5902V22.8722C432.553 22.8722 451.294 22.9699 459.36 23.0677C459.311 21.015 459.36 17.1053 459.41 15.1992C451.195 15.3459 432.651 15.3459 422.027 15.3459V9.72556C431.225 9.72556 449.719 9.77444 459.951 9.82331C459.852 8.79699 459.852 7.0376 459.852 5.47369C459.852 3.95865 459.901 2.24812 459.951 1.17293H407.959Z" fill="#3000ff"/>
<path d="M517.752 1.17293C517.949 3.76316 518.096 9.87218 518.096 16.6654C518.096 18.6692 518.195 21.2594 518.392 23.9474C517.063 22.6767 515.293 21.7481 513.522 20.5752C505.996 15.4436 489.125 3.5188 487.305 1.17293H471.269C471.417 6.1579 471.417 11.7293 471.417 19.5C471.417 27.3196 471.269 32.891 471.269 37.8271H483.911C483.763 35.5789 483.714 30.2519 483.665 22.6767C483.566 19.6955 483.517 16.7632 483.32 13.8308C485.042 15.3947 487.157 16.8609 489.223 18.3271C497.683 24.1917 512.981 34.5526 515.883 37.8271H529.902C529.803 32.9398 529.803 27.515 529.803 19.4511C529.803 11.6805 529.852 5.66917 530 1.17293H517.752Z" fill="#3000ff"/>
</svg>
