<svg width="289" height="40" viewBox="0 -1 289 40" fill="none" xmlns="http://www.w3.org/2000/svg">
<path d="M68.0161 0.662591H83.6593C79.2949 9.46455 70.2228 30.7848 67.6728 37.3374C65.417 37.2885 62.2786 37.2396 58.6988 37.2396C54.5305 37.2396 50.8036 37.2885 49.3815 37.3374C48.2046 33.621 45.5565 27.0685 43.3498 20.5648C42.4671 17.8753 41.5844 15.1369 40.8979 12.7897H40.5056C39.8191 15.1858 38.9364 18.022 37.8575 20.7604C35.5527 26.5306 32.9047 33.0831 31.3355 37.3374C30.3056 37.3374 28.0499 37.2396 26.3335 37.2396C20.9393 37.2396 17.7519 37.2885 16.0355 37.3374C12.9461 29.5134 4.85479 9.61125 0 0.662591H16.1336C16.8201 3.25428 20.1547 13.7677 22.5086 20.2714C23.3422 22.7653 24.1268 24.9169 24.7643 26.6284H25.0095C25.598 24.868 26.4316 22.6675 27.3634 20.0758C29.5701 13.7188 32.8556 4.72127 33.5912 0.662591C35.7979 0.711493 40.6037 0.760393 43.4479 0.760393C45.8508 0.760393 48.9892 0.711493 50.7546 0.662591C51.6863 4.47677 54.3834 13.4743 57.2767 20.4181C58.4536 23.2543 59.0911 25.3081 59.6305 26.9218H60.0228C60.4642 25.2592 61.0036 23.2054 61.9353 20.4181C64.1911 13.6699 67.0353 4.67237 68.0161 0.662591Z" fill="#3000ff"/>
<path d="M150.854 18.9022C150.854 30.8826 141.487 39 118.635 39C95.7836 39 86.4173 30.8826 86.4173 18.9022C86.4173 6.43276 96.7644 -1 118.635 -1C140.507 -1 150.854 6.43276 150.854 18.9022ZM118.635 28.3887C132.415 28.3887 137.074 24.868 137.074 18.9511C137.074 12.9364 132.317 9.61125 118.635 9.61125C104.954 9.61125 100.197 12.9364 100.197 18.9511C100.197 24.868 104.905 28.3887 118.635 28.3887Z" fill="#3000ff"/>
<path d="M172.95 17.6797C176.481 17.8264 183.984 17.8264 191.879 17.8264C199.774 17.8264 202.618 16.5061 202.618 13.8166C202.618 11.0293 199.823 10.1002 192.026 10.1002C188.299 10.1002 177.854 10.1491 172.901 10.2958C172.901 12.7897 172.901 15.2836 172.95 17.6797ZM201.932 22.1296V22.3252C210.513 23.1565 214.436 24.5257 216.005 30.1002C216.888 33.2787 217.673 35.9193 218.31 37.3374H206.1C203.893 37.3374 203.501 36.8484 202.275 32.0562C201.196 27.7531 199.578 26.9707 190.653 26.9707H173.097C173.195 31.1271 173.391 34.6968 173.685 37.3374H159.661C159.759 32.0073 159.857 26.8729 159.857 19C159.857 11.2249 159.808 5.94377 159.661 0.662591H196.145C209.434 0.662591 215.662 4.13448 215.662 11.5672C215.662 17.8753 211.543 21.1027 201.932 22.1296Z" fill="#3000ff"/>
<path d="M263.963 0.662591H283.431C276.811 5.45477 263.325 15.2836 256.166 19.3423C259.255 20.8093 263.129 22.912 267.052 25.5526C278.135 33.0831 282.695 35.9193 285 37.3374H266.267C263.472 37.3374 262.148 36.7995 260.628 35.7237C254.989 31.7628 247.142 26.0905 240.866 23.3032C240.866 28.3888 240.866 32.5452 241.111 37.3374H227.184C227.331 31.2249 227.429 26.7751 227.429 19C227.429 11.2249 227.331 6.67726 227.184 0.662591H241.111C240.817 6.28606 240.866 11.1271 240.866 17.7775H240.915C244.249 15.577 247.878 13.2298 250.869 11.0293C257.539 6.28606 260.873 3.40098 263.963 0.662591Z" fill="#3000ff"/>
</svg>
